<svg width="248" height="248" viewBox="0 0 248 248" fill="none" xmlns="http://www.w3.org/2000/svg">
<path opacity="0.13" fill-rule="evenodd" clip-rule="evenodd" d="M248.005 123.88C248.005 128.169 247.787 132.407 247.361 136.584V184.874V185.506V186.374V187.006V246.5V248H245.861H186.527H185.898H185.027H184.398H125.064H124.425H123.564H122.925H63.5918H62.9622H62.0918H61.4622H2.12891H0.628906V246.5V187.006V186.374V185.506V184.874V136.435C0.213006 132.306 0 128.118 0 123.88C0 119.642 0.213006 115.453 0.628906 111.325V63.7541V63.122V62.2541V61.622V2.12818V0.628177H2.12891H61.4622H62.0982H62.9622H63.5982H111.398C115.543 0.210186 119.748 -0.00390625 124.002 -0.00390625C128.257 -0.00390625 132.462 0.210186 136.607 0.628177H184.398H185.027H185.898H186.527H245.86H247.36V2.12818V61.622V62.2541H247.361V63.7541V111.176C247.787 115.353 248.005 119.591 248.005 123.88ZM245.861 63.7541V100.822C243.37 87.6049 238.779 75.1292 232.447 63.7541H245.861ZM245.861 111.254C244.104 94.1277 238.812 78.0478 230.726 63.7541H186.527V123.248H245.861V111.254ZM245.86 61.622H231.232C220.451 43.1292 205.015 27.6789 186.527 16.8738V2.12818H245.86V61.622ZM229.492 61.622C219.012 43.9387 204.205 29.1178 186.527 18.6151V61.622H229.492ZM184.398 2.12818V15.6576C172.94 9.26159 160.361 4.62923 147.03 2.12818H184.398ZM184.398 17.379C170.007 9.21612 153.798 3.88053 136.53 2.12818H125.065V61.622H184.398V17.379ZM63.5982 2.12818H100.975C87.6405 4.62986 75.0588 9.2639 63.5982 15.6624V2.12818ZM111.475 2.12818C94.2028 3.88088 77.9915 9.21824 63.5982 17.3838V61.622H122.932V2.12818H111.475ZM61.4622 2.12818V16.8828C42.9815 27.6875 27.5506 43.1344 16.7728 61.622H2.12891V2.12818H61.4622ZM61.4622 18.6243C43.7909 29.1264 28.9892 43.9438 18.5131 61.622H61.4622V18.6243ZM2.12891 63.7541H15.558C9.21276 75.1523 4.6157 87.6554 2.12891 100.902V63.7541ZM2.12891 125.38V136.358C3.90573 153.887 9.38536 170.323 17.7742 184.874H61.4622V125.38H2.12891ZM2.12891 184.874V146.858C4.67899 160.441 9.44813 173.243 16.0459 184.874H2.12891ZM2.12891 187.006H17.2839C28.0359 205.109 43.2717 220.242 61.4622 230.877V246.5H2.12891V187.006ZM63.5918 246.5V232.094C76.5474 239.328 90.9359 244.307 106.225 246.5H63.5918ZM63.5918 230.372C81.1273 240.322 101.362 246.073 122.925 246.259V187.006H63.5918V230.372ZM184.398 246.5H141.78C157.063 244.308 171.446 239.332 184.398 232.102V246.5ZM125.064 246.259C146.628 246.076 166.862 240.327 184.398 230.381V187.006H125.064V246.259ZM186.527 246.5V230.886C204.725 220.25 219.966 205.114 230.721 187.006H245.861V246.5H186.527ZM186.527 229.144C203.915 218.814 218.526 204.306 228.972 187.006H186.527V229.144ZM186.527 184.874H230.23C238.596 170.364 244.068 153.979 245.861 136.506V125.38H186.527V184.874ZM245.861 146.938C243.307 160.492 238.544 173.266 231.959 184.874H245.861V146.938ZM19.0326 187.006C29.4761 204.301 44.0811 218.806 61.4622 229.135V187.006H19.0326ZM17.2785 63.7541C9.16942 78.089 3.87048 94.2204 2.12891 111.402V123.248H61.4622V63.7541H17.2785ZM63.5918 63.7541H122.925V67.375H92.6071V67.3751H76.9102V123.248H63.5918V63.7541ZM76.9102 125.38H63.5918V184.874H122.925V125.38H96.9639V180.81H76.9102V125.38ZM96.9639 123.248H122.925V87.445H96.9639V123.248ZM125.064 67.375H153.641H158H173.694V123.248H184.398V63.7541H125.064V67.375ZM173.694 125.38H184.398V184.874H125.064V125.38H153.641V180.81H173.694V125.38ZM153.641 123.248V87.445H125.064V123.248H153.641Z" fill="#4A4A4A"/>
</svg>
